<?xml version="1.0" encoding="UTF-8"?>
<!-- The Best Svg Icon site in the world: iconSvg.co, Visit us! https://iconsvg.co -->
<svg fill="#000000" width="800px" height="800px" version="1.1" viewBox="144 144 512 512" xmlns="http://www.w3.org/2000/svg">
 <g>
  <path d="m591.45 168.25h-382.89c-3.0234 0-5.0391 2.0156-5.0391 5.0391v453.43c0 3.0234 2.0156 5.0391 5.0391 5.0391h382.89c3.0234 0 5.0391-2.0156 5.0391-5.0391v-453.43c0-3.0234-2.0156-5.0391-5.0391-5.0391zm-377.86 36.777h20.656v70.535h-20.656zm30.73-5.0391v-7.0508h20.656v82.625h-20.656zm256.44 19.648h-62.98v-17.633h62.98zm-49.375 10.078h73.555v17.633h-73.555zm-5.0391 27.711h54.414v17.633h-62.977v-17.633zm-13.602 27.707h153.66v29.223h-20.656v-7.0547c0-3.0234-2.0156-5.0391-5.0391-5.0391h-30.73c-3.0234 0-5.0391 2.0156-5.0391 5.0391v7.0547h-25.695c-3.0234 0-5.0391 2.0156-5.0391 5.0391v75.57h-22.672l13.098-13.098c2.0156-2.0156 2.0156-5.0391 0-7.0547l-57.43-56.93c-1.0078-1.0078-2.0156-1.5117-3.5273-1.5117s-2.5195 0.50391-3.5273 1.5117l-15.113 15.113v-47.859zm153.66 109.83h-20.656v-70.535h20.656zm-151.64 104.29v-74.566h19.648v74.566zm-29.727 0v-63.48h19.648v63.48zm-97.738 0v-17.633h19.145c3.0234 0 5.0391-2.0156 5.0391-5.0391v-27.711c0-3.0234-2.0156-5.0391-5.0391-5.0391h-19.145v-22.672c0-3.0234-2.0156-5.0391-5.0391-5.0391l-73.051 0.003906c-3.0234 0-5.0391 2.0156-5.0391 5.0391v27.711c0 3.0234 2.0156 5.0391 5.0391 5.0391h8.5664v17.633h-8.5664c-3.0234 0-5.0391 2.0156-5.0391 5.0391v22.672l-10.578-0.003906v-94.215h181.37v94.215zm-73.051 0v-17.633h62.977v17.633zm62.977-55.926h-62.98v-17.633h62.473l0.003906 17.633zm-49.375 10.078h73.555v17.633h-73.555zm54.41-99.25v40.809h-40.809zm-51.891 37.785-14.609-14.609 49.879-49.879 14.609 14.609zm93.203-72.547v-7.0547h20.656v82.625h-20.656zm61.465 34.258 41.312 41.312h-41.312zm4.0312-10.582 14.609-14.609 49.879 49.879-14.609 14.609zm-14.105 51.895h-20.656v-70.535h20.656zm-61.465 0h-20.656v-70.535h20.656zm130.48 40.809h19.648v63.48h-19.648zm24.688-10.078h-24.688v-6.0469c0-3.0234-2.0156-5.0391-5.0391-5.0391h-29.727c-3.0234 0-5.0391 2.0156-5.0391 5.0391v6.0469h-19.141v-20.656h53.402 0.50391 0.50391 126.96v94.211l-92.699 0.003906v-68.52c0-3.0234-2.5195-5.0391-5.0391-5.0391zm46.352-106.3v-7.0547h20.656v82.625h-20.656zm-10.078 75.57h-20.656v-70.535h20.656zm-129.98-80.609h-20.656v-7.0547c0-3.0234-2.0156-5.0391-5.0391-5.0391h-30.73c-3.0234 0-5.0391 2.0156-5.0391 5.0391v7.0547h-25.695c-3.0234 0-5.0391 2.0156-5.0391 5.0391v10.578l-13.602-13.098c-2.0156-2.0156-5.0391-2.0156-7.0547 0l-56.93 56.93c-2.0156 2.0156-2.0156 5.0391 0 7.0547l14.105 14.105h-25.691v-109.83h181.37zm-48.367-39.297h-40.809v-40.809zm-38.289-52.398 14.609-14.609 49.879 49.879-14.609 14.609zm-12.09 52.398h-20.656v-70.535h20.656zm-82.625 234.27h181.37v51.387l-181.37 0.003906zm191.45 0h181.37v51.387l-181.37 0.003906zm181.37-234.27h-75.57v-17.633h19.145c3.0234 0 5.0391-2.0156 5.0391-5.0391v-27.711c0-3.0234-2.0156-5.0391-5.0391-5.0391h-19.145v-23.172c0-3.0234-2.0156-5.0391-5.0391-5.0391h-73.051c-3.0234 0-5.0391 2.0156-5.0391 5.0391v27.711c0 3.0234 2.0156 5.0391 5.0391 5.0391h8.5664v17.633h-8.5664c-3.0234 0-5.0391 2.0156-5.0391 5.0391v22.672l-22.672-0.003907v-96.227h181.37zm-191.45-96.73v96.73h-25.695l14.105-14.105c2.0156-2.0156 2.0156-5.0391 0-7.0547l-56.93-56.93c-2.0156-2.0156-5.0391-2.0156-7.0547 0l-13.098 13.098v-10.578c0-3.0234-2.0156-5.0391-5.0391-5.0391h-25.695l0.003906-6.5508c0-3.0234-2.0156-5.0391-5.0391-5.0391h-30.73c-3.0234 0-5.0391 2.0156-5.0391 5.0391v7.0547h-21.16v-16.625zm-181.37 391.96h181.37v51.391h-181.37zm191.45 51.391v-51.391h181.37v51.391z"/>
  <path d="m314.86 530.48h-24.184c-3.0234 0-5.0391 2.0156-5.0391 5.0391 0 3.0234 2.0156 5.0391 5.0391 5.0391h24.184c3.0234 0 5.0391-2.0156 5.0391-5.0391 0-3.0234-2.5195-5.0391-5.0391-5.0391z"/>
  <path d="m314.86 590.44h-24.184c-3.0234 0-5.0391 2.0156-5.0391 5.0391 0 3.0234 2.0156 5.0391 5.0391 5.0391h24.184c3.0234 0 5.0391-2.0156 5.0391-5.0391 0-3.0234-2.5195-5.0391-5.0391-5.0391z"/>
  <path d="m509.32 530.48h-24.184c-3.0234 0-5.0391 2.0156-5.0391 5.0391 0 3.0234 2.0156 5.0391 5.0391 5.0391h24.184c3.0234 0 5.0391-2.0156 5.0391-5.0391 0-3.0234-2.5195-5.0391-5.0391-5.0391z"/>
  <path d="m509.32 590.44h-24.184c-3.0234 0-5.0391 2.0156-5.0391 5.0391 0 3.0234 2.0156 5.0391 5.0391 5.0391h24.184c3.0234 0 5.0391-2.0156 5.0391-5.0391 0-3.0234-2.5195-5.0391-5.0391-5.0391z"/>
 </g>
</svg>