<?xml version="1.0" encoding="UTF-8"?>
<!-- The Best Svg Icon site in the world: iconSvg.co, Visit us! https://iconsvg.co -->
<svg width="800px" height="800px" version="1.1" viewBox="144 144 512 512" xmlns="http://www.w3.org/2000/svg">
 <defs>
  <clipPath id="b">
   <path d="m289 502h253v149.9h-253z"/>
  </clipPath>
  <clipPath id="a">
   <path d="m179 148.09h378v393.91h-378z"/>
  </clipPath>
 </defs>
 <g clip-path="url(#b)">
  <path d="m533.82 651.9h-236.16c-2.3633 0-4.5898-1.0547-6.0859-2.8828-1.4961-1.8203-2.0938-4.2188-1.6289-6.5352l15.742-78.719c0.85156-4.2656 4.9844-7.0156 9.2656-6.1719 4.2656 0.85156 7.0312 5 6.1719 9.2656l-13.863 69.301h215.64l-28.039-84.105c-0.58984-1.7695-0.52734-3.6836 0.15625-5.4141l15.742-39.359c1.6133-4.0391 6.1797-5.9922 10.234-4.3828 4.0391 1.6211 6 6.1953 4.3828 10.234l-14.672 36.684 30.574 91.727c0.80469 2.4023 0.39453 5.0391-1.0859 7.0938-1.4688 2.0547-3.8438 3.2656-6.3711 3.2656z"/>
 </g>
 <path d="m431.49 541.54c-4.2031 0-7.6914-3.3125-7.8633-7.5508-0.17969-4.3438 3.1953-8.0156 7.543-8.1875 31.969-1.3164 63.078-11.148 89.984-28.434 52.297-33.457 83.52-90.457 83.52-152.47 0-28.984-6.9844-57.672-20.199-82.949-2.0156-3.8477-0.51953-8.6133 3.3281-10.629 3.8555-2.0234 8.6055-0.51953 10.629 3.3281 14.383 27.535 21.984 58.738 21.984 90.25 0 67.414-33.938 129.37-90.773 165.72-29.238 18.789-63.078 29.48-97.832 30.914-0.10938 0-0.21875 0.007812-0.32031 0.007812z"/>
 <g clip-path="url(#a)">
  <path d="m337.02 541.7h-102.34c-4.3438 0-7.8711-3.5273-7.8711-7.8711l-0.003906-86.594h-39.359c-2.7305 0-5.2578-1.418-6.6992-3.7305-1.4336-2.3203-1.5664-5.2188-0.34766-7.6602l46.414-92.82c1.0156-107.66 88.906-194.93 196.79-194.93 47.887 0 94.078 17.477 130.05 49.199 3.2578 2.875 3.5742 7.8477 0.69141 11.117-2.8828 3.2656-7.8477 3.5742-11.117 0.69141-33.082-29.188-75.574-45.266-119.63-45.266-99.832 0-181.05 81.227-181.05 181.06 0 1.2188-0.28516 2.4336-0.82812 3.5195l-41.539 83.074h34.496c4.3438 0 7.8711 3.5273 7.8711 7.8711v86.594h91.207l34.746-34.75v-43.973c0-4.3438 3.5273-7.8711 7.8711-7.8711s7.8711 3.5273 7.8711 7.8711v47.23c0 2.0859-0.82812 4.0938-2.3047 5.5664l-39.359 39.359c-1.4727 1.4805-3.4805 2.3086-5.5664 2.3086z"/>
 </g>
 <path d="m439.37 289.79c-2.8906 0-5.668-1.5898-7.0547-4.3516-1.9453-3.8906-0.37109-8.6211 3.5195-10.562l24.441-12.227-12.227-24.441c-1.1094-2.2188-1.1094-4.8242 0-7.0469l15.742-31.488c1.9453-3.8906 6.668-5.4648 10.562-3.5195 3.8906 1.9453 5.4648 6.6758 3.5195 10.562l-13.969 27.973 13.98 27.969c1.9453 3.8906 0.37109 8.6211-3.5195 10.562l-31.488 15.742c-1.125 0.5625-2.3281 0.82812-3.5078 0.82812z"/>
 <path d="m447.22 368.51c-1.1797 0-2.3867-0.26953-3.5117-0.82812-3.8906-1.9453-5.4648-6.6758-3.5195-10.562l7.8711-15.742c1.332-2.6719 4.0586-4.3555 7.0391-4.3555h31.488c4.3438 0 7.8711 3.5273 7.8711 7.8711s-3.5273 7.8711-7.8711 7.8711h-26.625l-5.6992 11.391c-1.375 2.7656-4.1523 4.3555-7.043 4.3555z"/>
 <path d="m376.21 289.79h-31.316c-4.3438 0-7.8711-3.5273-7.8711-7.8711s3.5273-7.8711 7.8711-7.8711h23.441v-23.617c0-4.3438 3.5273-7.8711 7.8711-7.8711h31.664c4.3438 0 7.8711 3.5273 7.8711 7.8711s-3.5273 7.8711-7.8711 7.8711h-23.789v23.617c0 4.3438-3.5273 7.8711-7.8711 7.8711z"/>
 <path d="m573.18 400h-39.359c-4.3438 0-7.8711-3.5273-7.8711-7.8711v-29.629l-14.918-29.828c-1.9453-3.8906-0.37109-8.6211 3.5195-10.562 3.8984-1.9531 8.6211-0.36328 10.562 3.5195l15.742 31.488c0.55078 1.0898 0.83594 2.3008 0.83594 3.5195v23.617h31.488c4.3438 0 7.8711 3.5273 7.8711 7.8711 0 4.3477-3.5273 7.875-7.8711 7.875z"/>
 <path d="m573.18 305.54h-39.359c-1.2188 0-2.4336-0.28516-3.5195-0.82812l-31.488-15.742c-3.8906-1.9453-5.4648-6.6758-3.5195-10.562 1.9453-3.8906 6.668-5.4648 10.562-3.5195l29.82 14.906h37.504c4.3438 0 7.8711 3.5273 7.8711 7.8711 0 4.3477-3.5273 7.875-7.8711 7.875z"/>
 <path d="m533.82 462.98c-0.82812 0-1.668-0.13281-2.4883-0.40234l-47.23-15.742c-1.7773-0.59766-3.2891-1.8008-4.2578-3.418l-46.223-77.035-77.035-46.223c-1.1094-0.66016-2.0312-1.5898-2.6992-2.6992l-47.23-78.719c-2.2109-3.6836-1.0625-8.4531 2.582-10.73l62.977-39.359c1.2422-0.77734 2.6914-1.1953 4.1641-1.1953h94.465c1.4805 0 2.9219 0.41797 4.1719 1.1953l62.977 39.359c1.0156 0.63672 1.875 1.4883 2.5039 2.5039l39.359 62.977c0.77734 1.2539 1.1953 2.7031 1.1953 4.1758v94.465c0 1.4805-0.41797 2.9219-1.1953 4.1719l-39.359 62.977c-1.4648 2.3516-4.0234 3.6992-6.6758 3.6992zm-41.984-30.168 38.59 12.863 34.883-55.805v-89.945l-37.203-59.52-59.523-37.203h-89.945l-54.508 34.07 42.242 70.398 77.035 46.223c1.1094 0.66016 2.0312 1.5898 2.6992 2.6992z"/>
 <path d="m581.05 226.81c0 4.3477-3.5234 7.875-7.8711 7.875s-7.8711-3.5273-7.8711-7.875 3.5234-7.8711 7.8711-7.8711 7.8711 3.5234 7.8711 7.8711"/>
</svg>